<svg id="Group_1_copy" data-name="Group 1 copy" xmlns="http://www.w3.org/2000/svg" xmlns:xlink="http://www.w3.org/1999/xlink" width="1080" height="1080" viewBox="0 0 1080 1080">
  <defs>
    <style>
      .cls-1, .cls-2, .cls-3, .cls-4 {
        fill: #fd99b8;
        stroke-width: 120px;
        fill-rule: evenodd;
      }

      .cls-1, .cls-4 {
        stroke: #f15b8a;
      }

      .cls-1 {
        filter: url(#filter);
      }

      .cls-2, .cls-3 {
        stroke: #fd99b8;
      }

      .cls-2 {
        filter: url(#filter-2);
      }

      .cls-3 {
        filter: url(#filter-3);
      }

      .cls-4 {
        filter: url(#filter-4);
      }
    </style>
    <filter id="filter" x="-7" y="22" width="658" height="1040" filterUnits="userSpaceOnUse">
      <feOffset result="offset" dy="4" in="SourceAlpha"/>
      <feGaussianBlur result="blur" stdDeviation="5.196"/>
      <feFlood result="flood" flood-opacity="0.35"/>
      <feComposite result="composite" operator="in" in2="blur"/>
      <feBlend result="blend" in="SourceGraphic"/>
    </filter>
    <filter id="filter-2" x="430" y="28" width="658" height="1039" filterUnits="userSpaceOnUse">
      <feOffset result="offset" dy="4" in="SourceAlpha"/>
      <feGaussianBlur result="blur" stdDeviation="5.196"/>
      <feFlood result="flood" flood-opacity="0.35"/>
      <feComposite result="composite" operator="in" in2="blur"/>
      <feBlend result="blend" in="SourceGraphic"/>
    </filter>
    <filter id="filter-3" x="60" y="154" width="591" height="913" filterUnits="userSpaceOnUse">
      <feOffset result="offset" dy="4" in="SourceAlpha"/>
      <feGaussianBlur result="blur" stdDeviation="5.196"/>
      <feFlood result="flood" flood-opacity="0.35"/>
      <feComposite result="composite" operator="in" in2="blur"/>
      <feBlend result="blend" in="SourceGraphic"/>
    </filter>
    <filter id="filter-4" x="429" y="149" width="592" height="913" filterUnits="userSpaceOnUse">
      <feOffset result="offset" dy="4" in="SourceAlpha"/>
      <feGaussianBlur result="blur" stdDeviation="5.196"/>
      <feFlood result="flood" flood-opacity="0.35"/>
      <feComposite result="composite" operator="in" in2="blur"/>
      <feBlend result="blend" in="SourceGraphic"/>
    </filter>
  </defs>
  <g style="fill: #fd99b8; filter: url(#filter)">
    <path id="Rectangle_1_copy_3" data-name="Rectangle 1 copy 3" class="cls-1" d="M550.3,967.085a25.729,25.729,0,0,0,10.632-34.8L127.712,117.821a25.728,25.728,0,0,0-34.8-10.632h0a25.727,25.727,0,0,0-10.632,34.8L515.5,956.452A25.728,25.728,0,0,0,550.3,967.085Z" style="stroke: inherit; filter: none; fill: inherit"/>
  </g>
  <use xlink:href="#Rectangle_1_copy_3" style="stroke: #f15b8a; filter: none; fill: none"/>
  <g style="fill: #fd99b8; filter: url(#filter-2)">
    <path id="Rectangle_1_copy" data-name="Rectangle 1 copy" class="cls-2" d="M529.945,972.873h0A25.27,25.27,0,0,1,519.5,938.7L953.151,123.421a25.27,25.27,0,0,1,34.177-10.443h0a25.266,25.266,0,0,1,10.443,34.177L564.122,962.429A25.27,25.27,0,0,1,529.945,972.873Z" style="stroke: inherit; filter: none; fill: inherit"/>
  </g>
  <use xlink:href="#Rectangle_1_copy" style="stroke: #fd99b8; filter: none; fill: none"/>
  <g style="fill: #fd99b8; filter: url(#filter-3)">
    <path id="Rectangle_1_copy_3-2" data-name="Rectangle 1 copy 3" class="cls-3" d="M550.3,239.577a25.729,25.729,0,0,1,10.632,34.8L195.178,962a25.728,25.728,0,0,1-45.429-24.164L515.5,250.21A25.729,25.729,0,0,1,550.3,239.577Z" style="stroke: inherit; filter: none; fill: inherit"/>
  </g>
  <use xlink:href="#Rectangle_1_copy_3-2" style="stroke: #fd99b8; filter: none; fill: none"/>
  <g style="fill: #fd99b8; filter: url(#filter-4)">
    <path id="Rectangle_1_copy-2" data-name="Rectangle 1 copy" class="cls-4" d="M529.541,234.005a25.727,25.727,0,0,0-10.632,34.8L884.662,956.43a25.728,25.728,0,0,0,34.8,10.633h0a25.728,25.728,0,0,0,10.633-34.8L564.337,244.637A25.727,25.727,0,0,0,529.541,234.005Z" style="stroke: inherit; filter: none; fill: inherit"/>
  </g>
  <use xlink:href="#Rectangle_1_copy-2" style="stroke: #f15b8a; filter: none; fill: none"/>
</svg>
