<svg id="Group_1_copy_2" data-name="Group 1 copy 2" xmlns="http://www.w3.org/2000/svg" xmlns:xlink="http://www.w3.org/1999/xlink" width="1080" height="1080" viewBox="0 0 1080 1080">
  <defs>
    <style>
      .cls-1, .cls-2, .cls-3, .cls-4 {
        fill: #fd99b8;
        stroke-width: 120px;
        fill-rule: evenodd;
      }

      .cls-1, .cls-3 {
        stroke: #fd99b8;
      }

      .cls-1, .cls-4 {
        filter: url(#filter);
      }

      .cls-2, .cls-4 {
        stroke: #f15b8a;
      }

      .cls-2 {
        filter: url(#filter-2);
      }

      .cls-3 {
        filter: url(#filter-3);
      }
    </style>
    <filter id="filter" x="429" y="85" width="592" height="913" filterUnits="userSpaceOnUse">
      <feOffset result="offset" dy="4" in="SourceAlpha"/>
      <feGaussianBlur result="blur" stdDeviation="5.196"/>
      <feFlood result="flood" flood-opacity="0.35"/>
      <feComposite result="composite" operator="in" in2="blur"/>
      <feBlend result="blend" in="SourceGraphic"/>
    </filter>
    <filter id="filter-2" x="60" y="90" width="591" height="913" filterUnits="userSpaceOnUse">
      <feOffset result="offset" dy="4" in="SourceAlpha"/>
      <feGaussianBlur result="blur" stdDeviation="5.196"/>
      <feFlood result="flood" flood-opacity="0.35"/>
      <feComposite result="composite" operator="in" in2="blur"/>
      <feBlend result="blend" in="SourceGraphic"/>
    </filter>
    <filter id="filter-3" x="60" y="91" width="592" height="913" filterUnits="userSpaceOnUse">
      <feOffset result="offset" dy="4" in="SourceAlpha"/>
      <feGaussianBlur result="blur" stdDeviation="5.196"/>
      <feFlood result="flood" flood-opacity="0.35"/>
      <feComposite result="composite" operator="in" in2="blur"/>
      <feBlend result="blend" in="SourceGraphic"/>
    </filter>
  </defs>
  <g style="fill: #fd99b8; filter: url(#filter)">
    <path id="Rectangle_1_copy_3" data-name="Rectangle 1 copy 3" class="cls-1" d="M529.612,903.38a25.744,25.744,0,0,1-10.634-34.8L884.591,180.657A25.722,25.722,0,1,1,930,204.83L564.389,892.753A25.7,25.7,0,0,1,529.612,903.38Z" style="stroke: inherit; filter: none; fill: inherit"/>
  </g>
  <use xlink:href="#Rectangle_1_copy_3" style="stroke: #fd99b8; filter: none; fill: none"/>
  <g style="fill: #fd99b8; filter: url(#filter-2)">
    <path id="Rectangle_1_copy" data-name="Rectangle 1 copy" class="cls-2" d="M550.361,908.955A25.744,25.744,0,0,0,561,874.155L195.382,186.232a25.722,25.722,0,1,0-45.411,24.173L515.584,898.328A25.7,25.7,0,0,0,550.361,908.955Z" style="stroke: inherit; filter: none; fill: inherit"/>
  </g>
  <use xlink:href="#Rectangle_1_copy" style="stroke: #f15b8a; filter: none; fill: none"/>
  <g style="fill: #fd99b8; filter: url(#filter-3)">
    <path id="Rectangle_1_copy_3-2" data-name="Rectangle 1 copy 3" class="cls-3" d="M550.392,176.249a25.729,25.729,0,0,1,10.633,34.8L195.271,898.675a25.728,25.728,0,0,1-45.429-24.164L515.6,186.882A25.728,25.728,0,0,1,550.392,176.249Z" style="stroke: inherit; filter: none; fill: inherit"/>
  </g>
  <use xlink:href="#Rectangle_1_copy_3-2" style="stroke: #fd99b8; filter: none; fill: none"/>
  <g style="fill: #fd99b8; filter: url(#filter)">
    <path id="Rectangle_1_copy-2" data-name="Rectangle 1 copy" class="cls-4" d="M529.635,170.677A25.728,25.728,0,0,0,519,205.473L884.756,893.1a25.728,25.728,0,0,0,45.429-24.164L564.431,181.309A25.727,25.727,0,0,0,529.635,170.677Z" style="stroke: inherit; filter: none; fill: inherit"/>
  </g>
  <use xlink:href="#Rectangle_1_copy-2" style="stroke: #f15b8a; filter: none; fill: none"/>
</svg>
